<svg width="33" height="21" viewBox="0 0 33 21" fill="none" xmlns="http://www.w3.org/2000/svg">
<path d="M13.7544 9.52396C13.9084 9.59728 14.033 9.65593 14.165 9.71459C15.712 10.4478 16.5478 11.7015 16.7751 13.3585C17.0683 15.4334 16.5185 17.259 15.0301 18.762C14.187 19.6198 13.1459 20.1184 11.9728 20.287C11.0343 20.419 10.0812 20.5216 9.12805 20.5289C6.232 20.5583 3.33595 20.5363 0.439906 20.5436C0.117308 20.5436 0.00733176 20.4703 0.00733176 20.1257C0.00733176 13.5638 0.0146635 6.98717 0 0.41791C0 0.0659858 0.117308 0 0.439906 0C3.54124 0.00733176 6.64258 0 9.75125 0.00733176C10.939 0.0146635 12.1267 0.12464 13.2265 0.615868C15.2281 1.51767 16.2545 3.24797 16.1885 5.48416C16.1519 6.82587 15.7706 8.01362 14.6929 8.8861C14.4069 9.12071 14.0843 9.30401 13.7544 9.52396ZM4.78764 11.5109C4.78764 13.3511 4.78764 15.1401 4.78764 16.907C4.83163 16.929 4.83896 16.9437 4.85363 16.9437C6.61325 16.929 8.37287 16.973 10.1252 16.885C11.5109 16.8117 12.2807 15.9832 12.4787 14.6122C12.6913 13.1239 12.0974 12.0974 10.807 11.7162C10.6091 11.6575 10.4038 11.5988 10.1985 11.5915C9.50197 11.5549 8.81278 11.5255 8.11626 11.5182C7.00917 11.5035 5.91673 11.5109 4.78764 11.5109ZM4.77298 8.07227C4.85363 8.08693 4.89762 8.1016 4.94894 8.1016C6.45195 8.09427 7.95496 8.09427 9.45797 8.0796C9.71459 8.0796 9.9712 8.04294 10.2205 7.98429C11.049 7.78633 11.8188 7.47107 11.9948 6.51794C12.0827 6.0487 12.0534 5.54281 11.9874 5.07358C11.8995 4.46504 11.4889 4.07646 10.917 3.88583C10.5797 3.77586 10.2278 3.68054 9.88322 3.67321C8.19691 3.62922 6.52527 3.61456 4.85363 3.59256C4.83163 3.59256 4.80964 3.61456 4.77298 3.63655C4.77298 5.10291 4.77298 6.56926 4.77298 8.07227Z" fill="black"/>
<path d="M22.3549 13.636C22.3036 15.7769 23.6086 17.0673 25.4269 17.2432C26.2921 17.3239 27.1572 17.2652 27.883 16.7227C28.2056 16.4807 28.4476 16.1288 28.7335 15.8355C28.8288 15.7402 28.9535 15.6156 29.0635 15.6156C30.2585 15.6009 31.461 15.6082 32.656 15.6156C32.6927 15.6156 32.722 15.6376 32.788 15.6596C32.6854 16.4294 32.3188 17.0819 31.8569 17.6905C30.3172 19.7214 28.1837 20.4252 25.7422 20.4106C23.638 20.3959 21.7977 19.6847 20.258 18.233C19.5175 17.5292 19.0703 16.6567 18.8063 15.6889C18.2051 13.482 18.1905 11.2678 19.0043 9.1343C20.0454 6.40688 22.1643 5.0725 25.0163 4.83789C26.1821 4.74257 27.3332 4.86721 28.4549 5.2338C30.7644 5.9963 32.0695 7.66795 32.7 9.94079C33.0153 11.0699 32.9933 12.2356 33.0006 13.4014C33.0006 13.6727 32.8393 13.6507 32.6634 13.6507C31.7616 13.6507 30.8524 13.6507 29.9506 13.6507C27.5678 13.6507 25.185 13.6507 22.8021 13.6507C22.6702 13.636 22.5235 13.636 22.3549 13.636ZM28.9608 11.0772C29.0488 9.28827 27.5238 7.91723 25.5589 7.99054C23.8213 8.0492 22.2962 9.56687 22.4722 11.0772C24.6277 11.0772 26.7833 11.0772 28.9608 11.0772Z" fill="black"/>
<path d="M21.5478 0.87503C21.7164 0.867698 21.8484 0.853035 21.9804 0.853035C24.4585 0.853035 26.9367 0.860367 29.4148 0.845703C29.7667 0.845703 29.8474 0.95568 29.8327 1.27828C29.8107 1.8135 29.8254 2.34871 29.8254 2.91326C29.6714 2.92059 29.5541 2.93526 29.4368 2.93526C26.944 2.93526 24.4585 2.92792 21.9657 2.94259C21.6138 2.94259 21.5332 2.83261 21.5405 2.50268C21.5625 1.97479 21.5478 1.43958 21.5478 0.87503Z" fill="black"/>
</svg>
