<svg width="20" height="20" viewBox="0 0 20 20" fill="none" xmlns="http://www.w3.org/2000/svg">
<path d="M0 4.70294C0.114554 4.39648 0.317626 4.23999 0.56756 4.12914C3.54074 2.78593 6.51393 1.44272 9.48191 0.0864678C9.72143 -0.0243798 9.94012 -0.0309002 10.1796 0.0799473C13.1789 1.44924 16.1833 2.80549 19.1825 4.16827C19.5886 4.35084 19.7605 4.72902 19.6407 5.15937C19.573 5.40063 19.4324 5.54408 19.245 5.62885C18.969 5.75274 18.6983 5.88314 18.4223 6.00051C18.3234 6.03963 18.2765 6.0918 18.2765 6.23525C18.2817 8.34787 18.2765 10.454 18.2817 12.5666C18.2817 12.6579 18.3286 12.7687 18.3858 12.8339C18.8024 13.3686 19.2346 13.8903 19.6511 14.4314C19.7813 14.5945 19.8854 14.7966 20 14.9792C20 15.1096 20 15.24 20 15.3704C19.8854 15.553 19.7813 15.7486 19.6511 15.9181C19.2398 16.4528 18.8128 16.9679 18.4015 17.4961C18.3338 17.5808 18.2869 17.7308 18.2869 17.8547C18.2713 18.3046 18.2817 18.748 18.2817 19.1979C18.2817 19.6608 18.0266 20.0064 17.6933 19.9999C17.3549 19.9934 17.1153 19.6608 17.1101 19.1849C17.1101 18.7545 17.0997 18.3176 17.1153 17.8873C17.1205 17.6982 17.0685 17.5743 16.9643 17.4439C16.5113 16.8897 16.0687 16.3289 15.6209 15.7681C15.3033 15.3704 15.3033 14.9726 15.6157 14.5749C16.0739 13.9946 16.5374 13.4273 16.9904 12.8405C17.0476 12.7687 17.0997 12.6514 17.0997 12.5536C17.1049 10.6039 17.1049 8.66085 17.1049 6.71124C17.1049 6.68516 17.0997 6.6656 17.0945 6.60691C17.0268 6.633 16.9643 6.65908 16.8966 6.68516C16.579 6.82861 16.2666 6.99162 15.9438 7.10899C15.7251 7.18723 15.6782 7.32416 15.6782 7.5915C15.6886 8.9934 15.6782 10.3953 15.6886 11.7972C15.6886 12.1689 15.6001 12.4558 15.3866 12.7101C14.741 13.4729 13.9651 13.9229 13.1268 14.2358C11.8667 14.7118 10.5754 14.8162 9.26842 14.777C8.0604 14.7444 6.87321 14.5358 5.73809 13.9881C5.13929 13.6946 4.58735 13.3099 4.11872 12.7492C3.89482 12.4818 3.78547 12.1819 3.78547 11.7776C3.80109 10.3301 3.79068 8.87603 3.79589 7.42849C3.79589 7.24592 3.75423 7.16115 3.61364 7.09595C2.6139 6.63952 1.61937 6.17004 0.614423 5.72013C0.359281 5.60276 0.130174 5.45931 0 5.14633C0 4.99636 0 4.84639 0 4.70294ZM2.30669 4.9116C2.39 4.95072 2.43166 4.9768 2.47331 4.99636C4.79563 6.07224 7.11794 7.14811 9.44025 8.2305C9.6277 8.31527 9.78391 8.32831 9.97657 8.23703C12.3093 7.18071 14.642 6.13092 16.9747 5.08113C17.0841 5.03549 17.1882 4.9768 17.3288 4.90508C17.2507 4.86595 17.2195 4.84639 17.183 4.82683C14.7826 3.74444 12.377 2.649 9.97136 1.56661C9.88284 1.52749 9.76308 1.53401 9.67456 1.57313C7.89898 2.37514 6.1234 3.17716 4.35303 3.98569C3.68133 4.29216 3.00963 4.5921 2.30669 4.9116ZM4.98828 7.74147C4.97787 7.78711 4.97266 7.8132 4.97266 7.83276C4.97266 9.08468 4.96746 10.3431 4.97787 11.5951C4.97787 11.6798 5.03515 11.7907 5.09242 11.8494C5.45171 12.2406 5.87347 12.4949 6.32127 12.6709C8.26868 13.4469 10.2421 13.4925 12.2312 12.9904C12.9914 12.7948 13.7204 12.4753 14.3504 11.882C14.4598 11.7841 14.5066 11.6733 14.5066 11.4972C14.5014 10.3431 14.5014 9.18249 14.5014 8.02837C14.5014 7.95013 14.4962 7.87188 14.491 7.77407C14.4129 7.80667 14.3504 7.83276 14.2932 7.85884C12.8925 8.49132 11.4866 9.12381 10.0859 9.76281C9.8516 9.86714 9.63291 9.89974 9.38818 9.78237C8.2114 9.22161 7.02942 8.68042 5.85264 8.1327C5.56105 8.00229 5.27467 7.87188 4.98828 7.74147ZM18.5108 15.1943C18.2244 14.8357 17.938 14.4771 17.6933 14.1641C17.4278 14.4967 17.1414 14.8553 16.8914 15.1617C17.157 15.4943 17.4434 15.8529 17.7141 16.192C17.9745 15.8659 18.2557 15.5138 18.5108 15.1943Z" fill="#414042"/>
</svg>
