<svg width="21" height="15" viewBox="0 0 21 15" fill="none" xmlns="http://www.w3.org/2000/svg">
<path d="M19.7463 12.9521C19.7824 9.5605 19.8113 6.23564 19.8402 2.87742C19.3132 2.8663 18.8223 2.84406 18.3315 2.83294C17.3425 2.8107 16.3535 2.78846 15.3574 2.7551C14.9892 2.74398 14.7438 2.37702 14.751 1.89887C14.7582 1.36511 15.0181 1.02039 15.4079 1.03151C17.0538 1.06487 18.6996 1.10935 20.3527 1.14271C20.7641 1.15383 20.9807 1.47631 20.9735 2.13238C20.9518 4.83453 20.9229 7.53667 20.8941 10.2499C20.8796 11.4175 20.8724 12.5851 20.8652 13.7416C20.858 14.3977 20.6559 14.6979 20.23 14.6868C18.613 14.6423 16.9888 14.5978 15.3718 14.5422C14.9531 14.5311 14.7221 14.2976 14.6644 13.8528C14.5922 13.2746 14.8304 12.8075 15.2347 12.8186C15.9204 12.8186 16.6062 12.852 17.2847 12.8742C18.0932 12.8965 18.9017 12.9187 19.7463 12.9521Z" fill="#414042"/>
<path d="M17.4849 7.00313C17.7953 6.95865 18.0696 7.30337 18.0984 7.78152C18.1273 8.23744 17.9035 8.66 17.6076 8.7156C17.3116 8.7712 17.0084 8.40424 16.9795 7.94832C16.9435 7.49241 17.1745 7.05873 17.4849 7.00313Z" fill="#414042"/>
<path d="M11.0607 14.6312C8.55582 15.0427 6.32525 12.2738 6.05816 8.43743C5.79107 4.60105 7.60295 1.15387 10.0934 0.753557C12.5983 0.353239 14.8216 3.1221 15.0887 6.9696C15.3486 10.7837 13.5367 14.2309 11.0607 14.6312ZM10.9524 12.9076C12.822 12.5852 14.1719 9.99422 13.9698 7.12528C13.7605 4.25634 12.0713 2.16579 10.2089 2.47715C8.32482 2.79962 6.97493 5.39057 7.18427 8.29287C7.39361 11.1729 9.07556 13.2301 10.9524 12.9076Z" fill="#414042"/>
<path d="M1.42444 2.44532C1.38834 5.82578 1.35947 9.13952 1.32338 12.5089C1.58325 12.52 1.82868 12.5311 2.07412 12.5422C3.20744 12.5533 4.34077 12.5645 5.48132 12.5867C5.82059 12.5978 6.03715 12.8202 6.10934 13.2205C6.17431 13.5875 6.10934 13.9322 5.9 14.1324C5.7845 14.2436 5.63291 14.3103 5.49576 14.3103C4.48514 14.3103 3.48175 14.2992 2.47114 14.288C1.92974 14.2769 1.38834 14.2658 0.846944 14.2658C0.406607 14.2658 0.197266 14.0212 0.197266 13.3429C0.197266 11.8639 0.218922 10.3738 0.233359 8.89488C0.255015 6.75985 0.276671 4.62483 0.298327 2.4898C0.298327 2.2118 0.298327 1.9338 0.305545 1.6558C0.312764 1.02197 0.558198 0.688368 0.962443 0.699488C2.4928 0.743968 4.02315 0.777328 5.5535 0.799567C5.82781 0.799567 6.05881 0.899647 6.18875 1.29996C6.36199 1.86708 6.12378 2.50092 5.69788 2.51204C5.01211 2.53428 4.32633 2.50092 3.64778 2.47868C2.9187 2.47868 2.18961 2.46756 1.42444 2.44532Z" fill="#414042"/>
<path d="M3.48795 6.68347C3.79835 6.62787 4.07988 6.9837 4.10875 7.45074C4.13763 7.90666 3.89219 8.36258 3.59623 8.40706C3.30026 8.44042 3.03317 8.10682 2.99708 7.63978C2.96099 7.1505 3.17033 6.73907 3.48795 6.68347Z" fill="#414042"/>
<path d="M11.5221 6.34418C11.4572 6.31082 11.3345 6.2441 11.2045 6.19962C10.988 6.12178 10.7714 6.03282 10.5548 5.99946C10.4971 5.98834 10.396 6.12178 10.3672 6.22186C10.3527 6.27746 10.4249 6.44426 10.4827 6.49986C10.6703 6.65553 10.8652 6.80009 11.0674 6.92241C11.5799 7.25601 11.8759 7.84537 11.9192 8.69048C11.9697 9.60232 11.7459 10.3474 11.2406 10.8589C11.1107 10.9923 11.0313 11.1035 11.0024 11.3481C10.9519 11.7485 10.7209 12.0153 10.4827 12.0153C10.2228 12.0265 9.97735 11.7596 9.92682 11.3593C9.89795 11.1257 9.83298 11.0368 9.70304 10.9701C9.54423 10.8811 9.38542 10.7588 9.24105 10.6254C8.9884 10.3807 8.90899 9.88032 9.04615 9.49112C9.19052 9.0908 9.47927 8.924 9.76079 9.10192C9.93404 9.21312 10.1001 9.3688 10.2805 9.43552C10.4538 9.50224 10.6487 9.51336 10.7497 9.19088C10.8436 8.90176 10.8219 8.65712 10.6126 8.50144C10.3527 8.3124 10.0856 8.13449 9.8402 7.91209C9.38542 7.50065 9.17608 6.84457 9.22661 6.05506C9.27714 5.26554 9.55867 4.69843 10.0423 4.37595C10.1289 4.32035 10.2083 4.18691 10.2517 4.05347C10.3672 3.68651 10.5548 3.48635 10.8075 3.51971C11.0674 3.55307 11.2334 3.76435 11.3128 4.16467C11.3345 4.28699 11.4139 4.39819 11.4861 4.47603C11.5943 4.58723 11.7387 4.64283 11.8398 4.76514C12.0347 4.98754 12.1285 5.28778 12.0635 5.67698C11.9986 6.05506 11.8398 6.26634 11.5221 6.34418Z" fill="#414042"/>
</svg>
