<svg width="26" height="28" viewBox="0 0 26 28" fill="none" xmlns="http://www.w3.org/2000/svg">
<path d="M26 27.7639C21.8891 27.7639 17.885 27.7639 13.8676 27.7639C13.8676 26.0554 13.8676 24.3737 13.8676 22.6252C14.8552 22.6252 15.8029 22.6119 16.7505 22.6252C17.1776 22.6386 17.4045 22.5318 17.3912 22.038C17.3778 19.4754 17.3778 16.9261 17.3778 14.3634C17.3778 14.23 17.3378 14.1098 17.3244 13.9497C14.4415 13.9497 11.5852 13.9497 8.70226 13.9497C8.67556 14.0431 8.64887 14.1232 8.64887 14.2033C8.64887 16.8326 8.64887 19.4487 8.63552 22.078C8.63552 22.5452 8.82238 22.6386 9.23614 22.6252C10.1704 22.6119 11.0914 22.6252 12.0657 22.6252C12.0657 24.3737 12.0657 26.0554 12.0657 27.7639C8.04825 27.7639 4.04415 27.7639 0 27.7639C0 26.0955 0 24.4137 0 22.6252C0.880903 22.6252 1.7885 22.5852 2.68275 22.6386C3.27002 22.6653 3.43018 22.4784 3.43018 21.8912C3.40349 19.2618 3.41684 16.6458 3.41684 13.9363C2.26899 13.9363 1.16119 13.9363 0 13.9363C0 12.1745 0 10.5062 0 8.731C1.1078 8.731 2.22895 8.731 3.40349 8.731C3.36345 5.808 4.21766 3.37884 6.55339 1.59034C8.68891 -0.0646877 11.1715 -0.104729 13.7608 0.0687826C13.7608 1.75051 13.7608 3.44558 13.7608 5.24743C13 5.24743 12.2392 5.24743 11.4651 5.24743C9.67659 5.27412 8.64887 6.31519 8.60883 8.06365C8.59548 8.61088 8.78234 8.731 9.28953 8.731C12.7998 8.71765 16.3234 8.71765 19.8337 8.71765C20.501 8.71765 21.1684 8.75769 21.8357 8.70431C22.423 8.65092 22.5298 8.90451 22.5298 9.42505C22.5164 13.5359 22.5431 17.6602 22.5031 21.771C22.5031 22.4517 22.6632 22.692 23.3439 22.6252C24.0513 22.5719 24.7721 22.5852 25.4795 22.6252C25.653 22.6386 25.96 22.8521 25.96 22.9723C26 24.5606 26 26.1355 26 27.7639Z" fill="black"/>
<path d="M19.9008 0.0277072C21.3556 0.0143602 22.4901 1.12216 22.5035 2.56364C22.5168 4.03181 21.3823 5.2197 19.9275 5.23305C18.4994 5.24639 17.2848 4.03181 17.2848 2.60368C17.3115 1.1889 18.4727 0.0277072 19.9008 0.0277072Z" fill="black"/>
</svg>
