<svg width="26" height="26" viewBox="0 0 26 26" fill="none" xmlns="http://www.w3.org/2000/svg">
<path d="M14.7594 9.16632C17.1447 7.06526 19.8243 6.83181 22.5749 8.00921C24.7877 8.95317 25.9042 10.8715 25.9549 13.2466C26.0361 17.0123 25.9854 20.7882 25.9752 24.5538C25.9752 25.1933 25.6098 25.5587 24.9704 25.5688C23.6509 25.579 22.3313 25.579 21.0118 25.5688C20.2709 25.5688 19.9055 25.2034 19.9055 24.4422C19.9055 21.5494 19.9055 18.6566 19.9055 15.7639C19.9055 15.4289 19.9258 15.0838 19.8547 14.7489C19.6517 13.6425 18.657 12.8711 17.5304 12.8914C16.3936 12.9218 15.3887 13.7948 15.2161 14.9316C15.1654 15.2462 15.1451 15.571 15.1451 15.8857C15.1349 18.748 15.1451 21.6002 15.1451 24.4625C15.1451 25.2846 14.871 25.5587 14.059 25.5688C12.6177 25.5688 11.1866 25.5688 9.74526 25.5688C8.95355 25.5688 8.64905 25.2542 8.64905 24.4625C8.64905 19.2859 8.64905 14.1094 8.64905 8.94302C8.64905 8.12086 8.9637 7.81636 9.78586 7.81636C10.9328 7.81636 12.0899 7.81636 13.2369 7.81636C14.4853 7.81636 14.6173 7.93816 14.7594 9.16632Z" fill="black"/>
<path d="M6.49686 16.686C6.49686 19.1321 6.49686 21.5885 6.49686 24.0346C6.49686 25.0496 5.98936 25.5571 4.97435 25.5571C3.95934 25.5571 2.94434 25.5673 1.92933 25.5571C0.965072 25.547 0.427119 25.0192 0.427119 24.0448C0.427119 19.122 0.416968 14.2094 0.427119 9.28657C0.427119 8.30202 0.934622 7.81481 1.92933 7.81481C2.97479 7.81481 4.03039 7.80466 5.07585 7.81481C5.95891 7.81481 6.48671 8.35277 6.49686 9.23582C6.49686 11.7226 6.49686 14.2094 6.49686 16.686Z" fill="black"/>
<path d="M3.42138 6.93294C1.46241 6.90249 -0.0397965 5.33938 0.000803813 3.36012C0.031254 1.5128 1.66541 -0.030007 3.55333 0.000443176C5.44124 0.0308934 6.96375 1.6143 6.94345 3.51237C6.913 5.46118 5.37019 6.95324 3.42138 6.93294Z" fill="black"/>
</svg>
