<svg width="16" height="15" viewBox="0 0 16 15" fill="none" xmlns="http://www.w3.org/2000/svg">
<path d="M7.80841 2.41748L7.9977 2.63278L8.18524 2.41596C8.27559 2.31152 8.36125 2.2092 8.44472 2.1095C8.64802 1.86669 8.83834 1.63938 9.05165 1.43459C9.65682 0.861125 10.2908 0.491238 10.9478 0.335212C11.6027 0.179724 12.2973 0.232506 13.034 0.53105L13.0345 0.531252C14.506 1.12379 15.3607 2.36356 15.6669 4.14245L15.667 4.14284C15.8999 5.48306 15.6274 6.72178 15.0407 7.90594C14.3543 9.27729 13.4177 10.4156 12.3832 11.4768C11.3359 12.5472 10.2052 13.4984 9.01871 14.3742C8.66608 14.6331 8.33021 14.75 8.00836 14.75C7.68654 14.75 7.35071 14.6331 6.99814 14.3743C5.44209 13.2219 3.97023 11.953 2.68412 10.4409C1.86301 9.47395 1.13297 8.45125 0.679336 7.22581L0.679237 7.22555C-0.027515 5.32304 0.122041 3.52454 1.24949 1.9189L1.24965 1.91867C2.58029 0.0189652 4.99444 -0.273377 6.70537 1.20937C6.94714 1.42014 7.15077 1.66039 7.36834 1.91708C7.47615 2.04428 7.58738 2.17551 7.70836 2.30919L7.72405 2.32652L7.74267 2.34064C7.74384 2.34153 7.74862 2.34548 7.75974 2.35859C7.76501 2.36481 7.77008 2.3711 7.77732 2.38008L7.77933 2.38258C7.7867 2.39172 7.79711 2.40463 7.80841 2.41748Z" fill="url(#paint0_linear_164_31)" stroke="#482DF3" stroke-width="0.5"/>
<defs>
<linearGradient id="paint0_linear_164_31" x1="8" y1="0" x2="14.7872" y2="11.1219" gradientUnits="userSpaceOnUse">
<stop stop-color="#0720FF"/>
<stop offset="0.48" stop-color="#9018CD"/>
<stop offset="1" stop-color="#B316C0"/>
</linearGradient>
</defs>
</svg>
