<svg width="20" height="20" viewBox="0 0 20 20" fill="none" xmlns="http://www.w3.org/2000/svg">
<path d="M1.66915 14.063C2.12416 13.0331 1.24785 12.459 0.540057 11.8512C-0.0666201 11.3278 -0.201437 10.8044 0.337831 10.2134C1.21414 9.2679 1.2984 8.27173 0.691727 7.15736C0.337831 6.49888 0.489501 5.97546 1.231 5.68843C1.31526 5.65466 1.36581 5.58712 1.45007 5.57024C2.61287 5.19878 2.98362 4.3208 3.00047 3.18955C3.01732 2.34534 3.42177 1.92323 4.28123 2.05831C5.47774 2.24403 6.32034 1.77127 6.85961 0.707563C7.26406 -0.102883 7.87074 -0.187304 8.57853 0.30234C9.52225 0.960827 10.466 0.977712 11.4097 0.30234C12.1849 -0.237957 12.7747 -0.0353458 13.1792 0.7751C13.7184 1.82193 14.561 2.22715 15.707 2.05831C16.5496 1.92323 16.9878 2.32845 16.9709 3.18955C16.9709 4.37145 17.4596 5.19878 18.6056 5.60401C19.4145 5.89104 19.7009 6.43134 19.2628 7.2249C18.6561 8.32238 18.8078 9.28478 19.6335 10.1965C20.1897 10.8044 20.1054 11.3784 19.4313 11.8174C18.3191 12.5435 18.1 13.5903 18.3528 14.8059C18.5044 15.5151 18.218 15.8697 17.5439 16.0047C17.5102 16.0047 17.4933 16.0216 17.4596 16.0385C16.1957 16.1229 15.4542 16.8152 15.1509 18.0477C14.9655 18.8075 14.5273 19.1283 13.7184 18.8075C12.5556 18.3517 11.5614 18.588 10.7356 19.5504C10.2469 20.1414 9.67392 20.1583 9.16836 19.5504C8.29205 18.5036 7.23036 18.3685 6.03386 18.8244C5.37662 19.0777 5.02273 18.7906 4.8205 18.1997C4.73624 17.9633 4.58457 17.7438 4.51716 17.5074C4.33179 16.6801 3.79252 16.3762 3.01732 16.1736C1.36581 15.7008 1.55119 15.9372 1.66915 14.063ZM9.23577 11.4966C8.54483 10.8213 7.90445 10.2303 7.31462 9.60559C6.80906 9.06529 6.42146 9.18348 5.9833 9.67312C5.562 10.1459 4.93847 10.5342 5.67996 11.2602C6.65739 12.2227 7.60111 13.2357 8.56168 14.215C9.28632 14.941 9.74133 14.9073 10.3143 14.063C11.6793 12.0369 13.0275 10.0108 14.3757 7.96781C14.8981 7.17425 14.8138 7.05606 13.887 6.38069C13.2803 5.92481 12.8758 5.99235 12.4545 6.65083C11.4265 8.27173 10.3312 9.85885 9.23577 11.4966Z" fill="#5FA4DA"/>
</svg>
