<svg width="26" height="26" viewBox="0 0 26 26" fill="none" xmlns="http://www.w3.org/2000/svg">
<path d="M4.37419e-06 12.9971C0.00583005 5.80238 5.81985 -0.00582129 13.0087 4.37857e-06C20.2151 0.00583005 26.0116 5.8315 26 13.0437C25.9883 20.1918 20.1685 25.9942 13.0029 25.9942C5.8082 25.9942 -0.0058213 20.186 4.37419e-06 12.9971ZM14.9953 14.803C11.7271 15.6186 7.01411 19.3587 6.19852 21.7589C6.216 21.7764 6.23347 21.8055 6.25678 21.823C9.62402 24.2639 13.2534 24.7475 17.1508 23.3027C17.3197 23.2386 17.3372 23.1454 17.2964 22.9939C16.877 21.2987 16.4867 19.5917 16.0264 17.9023C15.741 16.8537 15.339 15.8342 14.9953 14.803ZM4.71297 20.4015C7.04907 16.8537 10.0784 14.2205 14.1972 12.9446C14.0457 12.6126 13.9117 12.3038 13.7661 12.0009C13.6146 11.6921 13.4573 11.3834 13.3058 11.0688C9.56576 12.1524 5.76742 12.6417 1.88752 12.6534C1.85839 15.6186 2.78468 18.1819 4.71297 20.4015ZM8.26081 2.95362C6.38494 3.85077 4.88192 5.15573 3.73426 6.8743C2.95945 8.03943 2.41766 9.30943 2.1322 10.7251C5.6276 10.6726 9.01815 10.2415 12.3796 9.35604C11.1154 7.1248 9.75218 5.01008 8.26081 2.95362ZM14.6166 8.65695C16.7896 7.80058 18.8111 6.61214 20.3258 4.68967C19.1898 3.6061 17.1624 2.37105 14.5875 2.00404C13.1893 1.80596 11.797 1.85257 10.4746 2.19046C11.8494 4.33431 13.2185 6.47233 14.6166 8.65695ZM21.5899 5.95384C19.9063 8.00448 17.7683 9.33273 15.4089 10.3406C15.7177 11.0397 16.0148 11.7213 16.3294 12.3912C16.3585 12.4553 16.51 12.5019 16.6032 12.4961C18.2285 12.3155 19.8597 12.333 21.4851 12.5077C22.3473 12.6009 23.2095 12.7291 24.1066 12.8514C24.0542 10.2765 23.2153 7.99865 21.5899 5.95384ZM19.2072 22.2133C21.8288 20.3607 23.4017 17.8965 23.9668 14.7564C21.6832 14.1156 19.3995 13.9175 17.0401 14.2787C17.9722 16.8653 18.7062 19.4811 19.2072 22.2133Z" fill="black"/>
</svg>
