<svg width="30" height="22" viewBox="0 0 30 22" fill="none" xmlns="http://www.w3.org/2000/svg">
<path d="M14.6071 21.1095C11.0323 20.9792 7.99745 20.8954 4.9626 20.7557C3.91064 20.7092 2.86799 20.5416 1.97429 19.8993C0.987502 19.1825 0.615128 18.1398 0.410322 17.032C0.0100193 14.9188 -0.0365275 12.7776 0.0193287 10.6458C0.0751848 8.60703 0.14035 6.55897 0.326537 4.52022C0.466178 3.03073 0.940955 1.59708 2.42114 0.870954C3.06349 0.554436 3.82686 0.35894 4.54368 0.312393C9.21697 0.0238028 13.8996 -0.0692908 18.5822 0.0517308C20.7513 0.107587 22.9203 0.200681 25.0894 0.284465C26.3648 0.331012 27.5471 0.619602 28.4315 1.62501C29.0925 2.36976 29.3997 3.29139 29.5207 4.24094C29.7069 5.70251 29.8279 7.16408 29.8744 8.63496C29.9582 11.344 29.9396 14.0623 29.53 16.7527C29.381 17.7302 29.0925 18.6891 28.4036 19.4524C27.5378 20.4113 26.3927 20.6999 25.1732 20.7464C21.4774 20.8954 17.7723 20.9978 14.6071 21.1095ZM11.8701 14.3975C14.5885 12.9917 17.223 11.614 19.9227 10.2175C17.2044 8.80253 14.5605 7.41543 11.8701 6.01903C11.8701 8.83045 11.8701 11.5674 11.8701 14.3975Z" fill="black"/>
</svg>
